<?xml version="1.0" encoding="utf-8"?>
<!-- Generator: Adobe Illustrator 17.1.0, SVG Export Plug-In . SVG Version: 6.00 Build 0)  -->
<!DOCTYPE svg PUBLIC "-//W3C//DTD SVG 1.1//EN" "http://www.w3.org/Graphics/SVG/1.1/DTD/svg11.dtd">
<svg version="1.1" id="Layer_1" xmlns="http://www.w3.org/2000/svg" xmlns:xlink="http://www.w3.org/1999/xlink" x="0px" y="0px"
	 viewBox="0 0 32 32" enable-background="new 0 0 32 32" xml:space="preserve">
<g>
	<path fill="#3B9B51" d="M16.4,0.3C11.7,0.3,8,2.3,5.7,6.6c-2.2,4.2-1.9,8.4,0.8,12.2c2.9,4.2,5.9,8.2,8.9,12.4
		c0.4,0.6,0.7,0.8,1.2,0c3-4.3,6.1-8.5,9.1-12.7c1.4-1.9,2-4.2,2-6.5C27.7,5.7,22.6,0.4,16.4,0.3z M19.9,16v-2.2
		c0-0.5,0.4-0.8,0.8-0.8c0.5,0,0.8,0.4,0.8,0.8V17c0,0.5-0.3,0.7-0.8,0.7h-9.4c-0.5,0-1.1-0.2-1.1-0.7v-6.2c0-0.2,0.2-0.4,0.4-0.6
		l4.8-4.7c0.3-0.3,0.9-0.3,1.2,0l4.7,4.7c0.3,0.3,0.3,0.9,0,1.2c-0.3,0.3-0.9,0.3-1.2,0l-4-4.1l-3.9,3.9V16H19.9z"/>
</g>
</svg>
