<?xml version="1.0" encoding="utf-8"?>
<!-- Generator: Adobe Illustrator 17.0.0, SVG Export Plug-In . SVG Version: 6.00 Build 0)  -->
<!DOCTYPE svg PUBLIC "-//W3C//DTD SVG 1.1//EN" "http://www.w3.org/Graphics/SVG/1.1/DTD/svg11.dtd">
<svg version="1.1" id="Layer_1" xmlns="http://www.w3.org/2000/svg" xmlns:xlink="http://www.w3.org/1999/xlink" x="0px" y="0px"
	 width="65px" height="65px" viewBox="0 0 65 65" enable-background="new 0 0 65 65" xml:space="preserve">
<g>
	<path fill="#44AB39" d="M33.922,0.812c-9.75,0-17.062,4.062-21.734,12.797c-4.469,8.531-3.656,16.859,1.625,24.781
		c5.891,8.531,11.984,16.656,18.078,25.188c0.812,1.219,1.422,1.625,2.438,0c6.094-8.734,12.391-17.266,18.484-25.797
		c2.844-3.859,4.062-8.531,4.062-13.203C56.875,11.781,46.516,1.016,33.922,0.812z M39.812,31.281v-3.859
		c0-0.812,0.609-1.422,1.422-1.422c0.812,0,1.422,0.609,1.422,1.422v5.484c0,0.812-0.609,1.219-1.422,1.219h-16.25
		c-0.812,0-1.828-0.406-1.828-1.219V22.344c0-0.406,0.406-0.812,0.609-1.016l8.328-8.125c0.609-0.609,1.625-0.609,2.031,0
		l8.125,8.125c0.609,0.609,0.609,1.422,0,2.031c-0.609,0.609-1.422,0.609-2.031,0l-6.703-7.109l-6.703,6.703v8.328H39.812z"/>
</g>
</svg>
