<?xml version="1.0" encoding="utf-8"?>
<!-- Generator: Adobe Illustrator 17.1.0, SVG Export Plug-In . SVG Version: 6.00 Build 0)  -->
<!DOCTYPE svg PUBLIC "-//W3C//DTD SVG 1.1//EN" "http://www.w3.org/Graphics/SVG/1.1/DTD/svg11.dtd">
<svg version="1.1" id="Layer_1" xmlns="http://www.w3.org/2000/svg" xmlns:xlink="http://www.w3.org/1999/xlink" x="0px" y="0px"
	 viewBox="0 0 32 32" enable-background="new 0 0 32 32" xml:space="preserve">
<g>
	<path fill="#3B9B51" d="M16.7,0.4C11.9,0.4,8.3,2.4,6,6.7C3.8,10.9,4.2,15,6.8,18.9c2.9,4.2,5.9,8.2,8.9,12.4
		c0.4,0.6,0.7,0.8,1.2,0c3-4.3,6.1-8.5,9.1-12.7c1.4-1.9,2-4.2,2-6.5C28,5.8,22.9,0.5,16.7,0.4z M19.6,15.4v-1.9
		c0-0.4,0.3-0.7,0.7-0.7c0.4,0,0.7,0.3,0.7,0.7v2.7c0,0.4-0.3,0.6-0.7,0.6h-8c-0.4,0-0.9-0.2-0.9-0.6V11c0-0.2,0.2-0.4,0.3-0.5
		l4.1-4c0.3-0.3,0.8-0.3,1,0l4,4c0.3,0.3,0.3,0.7,0,1c-0.3,0.3-0.7,0.3-1,0L16.5,8l-3.3,3.3v4.1H19.6z"/>
</g>
</svg>
