<?xml version="1.0" encoding="utf-8"?>
<!-- Generator: Adobe Illustrator 17.0.0, SVG Export Plug-In . SVG Version: 6.00 Build 0)  -->
<!DOCTYPE svg PUBLIC "-//W3C//DTD SVG 1.1//EN" "http://www.w3.org/Graphics/SVG/1.1/DTD/svg11.dtd">
<svg version="1.1" id="Layer_1" xmlns="http://www.w3.org/2000/svg" xmlns:xlink="http://www.w3.org/1999/xlink" x="0px" y="0px"
	 width="65px" height="65px" viewBox="0 0 65 65" enable-background="new 0 0 65 65" xml:space="preserve">
<g>
	<path fill="none" stroke="#000000" stroke-width="4" stroke-linecap="round" stroke-miterlimit="10" d="M45,31"/>
</g>
<g>
	<path fill="#ABDDB2" d="M46.627,51H18.222C16.821,51,15,50.419,15,49.018V30.25c0-0.681,0.616-1.332,1.102-1.81L30.74,14.237
		c0.997-0.978,2.681-0.967,3.665,0.026l14.108,14.208c0.986,0.996,0.999,2.602,0.004,3.586c-0.996,0.985-2.59,0.979-3.576-0.018
		L32.779,19.627L21,31.314V46h23v-6.62c0-1.401,1.099-2.536,2.5-2.536S49,37.98,49,39.38v9.638C49,50.419,48.028,51,46.627,51z"/>
</g>
</svg>
