<?xml version="1.0" encoding="utf-8"?>
<!-- Generator: Adobe Illustrator 22.1.0, SVG Export Plug-In . SVG Version: 6.00 Build 0)  -->
<svg version="1.1" id="Layer_1" xmlns="http://www.w3.org/2000/svg" xmlns:xlink="http://www.w3.org/1999/xlink" x="0px" y="0px"
	 viewBox="0 0 144 144" enable-background="new 0 0 144 144" xml:space="preserve">
<g>
	<g>
		
			<linearGradient id="SVGID_1_" gradientUnits="userSpaceOnUse" x1="-113.1728" y1="-172.5509" x2="-248.4129" y2="-307.791" gradientTransform="matrix(-1 0 0 -1 -108.3119 -167.4729)">
			<stop  offset="0" style="stop-color:#0066B3"/>
			<stop  offset="0.1601" style="stop-color:#0062AD"/>
			<stop  offset="0.3903" style="stop-color:#0059A1"/>
			<stop  offset="0.6627" style="stop-color:#004B8E"/>
			<stop  offset="0.9652" style="stop-color:#003774"/>
			<stop  offset="0.9947" style="stop-color:#003571"/>
		</linearGradient>
		<path fill="url(#SVGID_1_)" d="M0,15.9C0,7.3,7.1,0.2,15.7,0.2h112.6c8.6,0,15.7,7.1,15.7,15.7v112.6c0,8.6-7.1,15.7-15.7,15.7
			H15.7c-8.6,0-15.7-7.1-15.7-15.7V15.9z"/>
	</g>
	<g id="White_Highlights_5_">
		<g>
			<path fill="#003571" d="M135.8,12.6c-4.9,1.1-16,1.1-18.8,6l-2.8,4.8c-7.1,12.2-25.1,57.4-42.5,58C54.5,82,80.8,25.8,83.4,20.2
				c-10.8,2.6-21.2,1-25,12.1c-4,11.5-8,23-12.3,34.4c-8.8,23.5-19.7,46.1-34.4,66.2c0.3-0.4,0.7-0.9-0.4,0.6
				c11-2.2,20.9-1.8,27.5-11.7c6.1-9.1,10-19.4,14.1-29.5l1.9-4.8l1.6,1.5C72,103.7,84,89,96.3,77.5l1.8-1.7l6.9,25.8l15.1-16.3
				c-1.3-2.3-2.5-4.6-3.7-7l-0.2-0.4c-10-21.8,7.1-46.7,18.9-64.2L135.8,12.6z"/>
		</g>
	</g>
	<g id="White_Highlights_6_">
		<g>
			<path fill="#FFFFFF" d="M132.5,9.3c-4.9,1.1-16,1.1-18.8,6l-2.8,4.8c-7.1,12.2-25.1,57.4-42.5,58c-17.2,0.6,9.1-55.6,11.7-61.2
				c-10.8,2.6-21.2,1-25,12.1c-4,11.5-8,23-12.3,34.4C34,86.8,23.1,109.4,8.4,129.5c0.3-0.4,0.7-0.9-0.4,0.6
				c11-2.2,20.9-1.8,27.5-11.7c6.1-9.1,10-19.4,14.1-29.5l1.9-4.8l1.6,1.5c15.7,14.8,27.7,0.1,40-11.5l1.8-1.7l6.9,25.8L116.8,82
				c-1.3-2.3-2.5-4.6-3.7-7l-0.2-0.4c-10-21.8,7.1-46.7,18.9-64.2L132.5,9.3z"/>
		</g>
	</g>
</g>
</svg>
