<?xml version="1.0" encoding="utf-8"?>
<!-- Generator: Adobe Illustrator 17.0.0, SVG Export Plug-In . SVG Version: 6.00 Build 0)  -->
<!DOCTYPE svg PUBLIC "-//W3C//DTD SVG 1.1//EN" "http://www.w3.org/Graphics/SVG/1.1/DTD/svg11.dtd">
<svg version="1.1" id="Layer_1" xmlns="http://www.w3.org/2000/svg" xmlns:xlink="http://www.w3.org/1999/xlink" x="0px" y="0px"
	 width="130px" height="130px" viewBox="0 0 130 130" enable-background="new 0 0 130 130" xml:space="preserve">
<path fill="#151011" d="M66.359,20.04c9.141,0,16.62-2.301,16.685-5.112c0.076-2.82-7.306-5.11-16.461-5.11
	c-9.155-0.017-16.612,2.267-16.699,5.092C49.822,17.721,57.209,20.04,66.359,20.04 M64.997,119.945
	c-31.976,0-57.89-25.92-57.89-57.89c0-18.683,8.895-35.263,22.638-45.85C6.596,42.355,32.472,98.674,47.4,100.193
	c18.596,1.147,25.634-57.616,47.477-65.145c16.39-6.149,28.793,18.391,21.308,46.052C108.585,104.623,89.177,119.529,64.997,119.945
	 M38.25,14.184c4.394-4.945,11.841-8.808,21.835-9.772c1.622-0.134,3.252-0.247,4.913-0.247c16.361,0,31.109,6.809,41.637,17.727
	c-1.473-0.488-3.53-1.157-7.477-1.157c-32.056,0-42.934,63.311-52.541,63.094C40.252,84.046,18.483,36.43,38.25,14.184
	 M65.002,0.001C29.102,0.001,0,29.1,0,65.001c0,35.899,29.102,64.998,65.002,64.998c35.897,0,64.998-29.099,64.998-64.998
	C130,29.1,100.898,0.001,65.002,0.001"/>
</svg>
