<?xml version="1.0" standalone="no"?>
<!DOCTYPE svg PUBLIC "-//W3C//DTD SVG 20010904//EN"
 "http://www.w3.org/TR/2001/REC-SVG-20010904/DTD/svg10.dtd">
<svg version="1.0" xmlns="http://www.w3.org/2000/svg"
 width="700.000000pt" height="700.000000pt" viewBox="0 0 700.000000 700.000000"
 preserveAspectRatio="xMidYMid meet">
<metadata>
Created by potrace 1.11, written by Peter Selinger 2001-2013
</metadata>
<g transform="translate(0.000000,700.000000) scale(0.100000,-0.100000)"
fill="#000000" stroke="none">
<path d="M3405 6771 c-28 -9 -69 -28 -90 -41 -22 -13 -236 -218 -475 -454
-2098 -2076 -2009 -1987 -2041 -2051 -21 -44 -32 -86 -40 -150 -6 -58 -8 -661
-6 -1675 3 -1744 -2 -1615 63 -1749 34 -69 122 -159 189 -192 l50 -24 2445 0
c2405 0 2446 0 2490 20 69 29 154 90 195 137 46 53 91 146 105 218 14 68 3
3208 -11 3285 -5 28 -23 79 -41 115 -29 59 -123 157 -1007 1050 -1434 1448
-1441 1455 -1490 1480 -105 53 -238 65 -336 31z"/>
</g>
</svg>
